<svg xmlns="http://www.w3.org/2000/svg" width="35" height="35" viewBox="0 0 35 35">
  <g id="Group_20714" data-name="Group 20714" transform="translate(-241 -1776)">
    <circle id="Ellipse_2534" data-name="Ellipse 2534" cx="17.5" cy="17.5" r="17.5" transform="translate(241 1776)" fill="#ffcc06"/>
    <path id="noun-language-2447096" d="M124.545,35V50.357h-8.376l-5.584,4.188V50.357H105V35Zm-4.886,3.49v-1.4h-1.4v1.4h-2.094v1.4h3.459a8.238,8.238,0,0,1-.852,3.03c-.088-.1-.173-.212-.256-.319a10.673,10.673,0,0,1-.993-1.559l-.039-.075-1.241.638.041.08.044.084a11.661,11.661,0,0,0,1.681,2.4q-.207.283-.437.548a8.814,8.814,0,0,1-.956.948c-.149.126-.3.246-.459.364l-.186.133-.191.129.771,1.164a10.071,10.071,0,0,0,2.483-2.324,6.6,6.6,0,0,0,1.122.725,5.713,5.713,0,0,0,.665.281l.462-1.318a4.1,4.1,0,0,1-.429-.175,5.173,5.173,0,0,1-1.051-.685,9.612,9.612,0,0,0,1.222-4.065h.725v-1.4Zm-9.074.7h-.921l-2.992,6.98h1.519l.6-1.4h3.589l.6,1.4H114.5l-2.992-6.98Zm-1.2,4.188h2.393l-1.2-2.792Z" transform="translate(143.728 1750.455)" fill="#fff" fill-rule="evenodd"/>
  </g>
</svg>
