<svg xmlns="http://www.w3.org/2000/svg" width="35" height="35" viewBox="0 0 35 35">
  <g id="Group_20716" data-name="Group 20716" transform="translate(-239 -1680)">
    <circle id="Ellipse_2530" data-name="Ellipse 2530" cx="17.5" cy="17.5" r="17.5" transform="translate(239 1680)" fill="#ffcc06"/>
    <g id="Group_20622" data-name="Group 20622" transform="translate(3737.394 21215.186)">
      <path id="Path_69887" data-name="Path 69887" d="M89.061,46.574a1.552,1.552,0,0,0,1.408-1.551V40.193a1.552,1.552,0,0,0-1.551-1.551H83.767a1.552,1.552,0,0,0-1.551,1.551v2.032H75.781a1.552,1.552,0,0,0-1.551,1.551v6.2a1.656,1.656,0,0,0,.089.517h-.588a.921.921,0,0,0-.927.927,2.586,2.586,0,0,0,2.585,2.585H87.867a2.586,2.586,0,0,0,2.585-2.585.921.921,0,0,0-.927-.927h-.57a1.656,1.656,0,0,0,.089-.517v-3.4Zm-4.118-5.722h2.763a.517.517,0,0,1,0,1.034H84.944a.517.517,0,0,1,0-1.034Zm2.46,2.995a.517.517,0,0,1-.517.517H85.781a.517.517,0,1,1,0-1.034h1.105A.517.517,0,0,1,87.4,43.847Zm-12.139-.071a.517.517,0,0,1,.517-.517h6.453V44.6l-.428,1.39a1.045,1.045,0,0,0,.356,1.123,1.017,1.017,0,0,0,.624.214,1.045,1.045,0,0,0,.553-.16l.909-.57h3.743v3.422a.517.517,0,0,1-.517.517H80.22V48.82a1.487,1.487,0,0,0-.606-1.176.062.062,0,0,0-.036-.018,1.618,1.618,0,1,0-2.888-1,1.521,1.521,0,0,0,.356,1,1.572,1.572,0,0,0-.624,1.212v1.693h-.66a.517.517,0,0,1-.517-.517V43.776Z" transform="translate(-3562.531 -19563.643)" fill="#fff"/>
    </g>
  </g>
</svg>
